<?xml version="1.0" standalone="no"?>
<!DOCTYPE svg PUBLIC "-//W3C//DTD SVG 20010904//EN"
 "http://www.w3.org/TR/2001/REC-SVG-20010904/DTD/svg10.dtd">
<svg version="1.0" xmlns="http://www.w3.org/2000/svg"
 width="1367.000000pt" height="1367.000000pt" viewBox="0 0 1367.000000 1367.000000"
 preserveAspectRatio="xMidYMid meet">
<metadata>
Created by potrace 1.11, written by Peter Selinger 2001-2013
</metadata>
<g transform="translate(0.000000,1367.000000) scale(0.100000,-0.100000)"
fill="#000000" stroke="none">
<path d="M8800 11179 c-19 -5 -48 -11 -65 -14 -16 -4 -48 -10 -70 -15 -22 -5
-56 -12 -75 -15 -19 -3 -64 -12 -100 -20 -36 -8 -76 -17 -90 -19 -14 -3 -79
-16 -145 -30 -66 -14 -131 -27 -145 -30 -14 -3 -36 -8 -50 -11 -14 -3 -38 -8
-55 -11 -79 -14 -182 -35 -195 -41 -8 -3 -24 -7 -35 -8 -24 -3 -85 -14 -105
-20 -8 -2 -28 -7 -45 -10 -16 -2 -41 -7 -55 -11 -14 -3 -36 -7 -50 -8 -14 -2
-32 -6 -40 -9 -8 -3 -40 -10 -70 -16 -67 -13 -91 -18 -155 -32 -27 -6 -63 -13
-79 -16 -25 -4 -116 -24 -181 -38 -10 -3 -36 -7 -56 -10 -20 -3 -51 -10 -69
-15 -18 -5 -37 -7 -41 -4 -5 3 -9 1 -9 -3 0 -5 -8 -9 -17 -9 -19 -1 -78 -12
-103 -19 -8 -2 -26 -6 -40 -9 -23 -4 -95 -18 -112 -22 -5 -1 -9 -2 -10 -4 -2
-1 -12 -3 -23 -4 -11 -2 -45 -8 -75 -15 -95 -20 -104 -22 -132 -26 -15 -2 -32
-6 -37 -9 -5 -3 -26 -8 -47 -11 -22 -3 -48 -7 -59 -9 -11 -3 -54 -12 -95 -20
-41 -9 -82 -19 -90 -22 -8 -4 -31 -8 -50 -10 -65 -8 -75 -10 -85 -16 -5 -3
-32 -9 -60 -13 -27 -5 -54 -9 -60 -11 -11 -3 -106 -23 -142 -30 -42 -8 -68
-13 -93 -19 -41 -9 -84 -17 -105 -20 -11 -2 -20 -4 -20 -5 0 -2 -16 -5 -60
-13 -16 -3 -74 -15 -129 -26 -54 -12 -108 -23 -120 -25 -25 -5 -211 -43 -246
-50 -42 -9 -124 -26 -145 -31 -11 -2 -20 -4 -20 -5 0 -1 -9 -3 -20 -5 -48 -9
-72 -13 -100 -19 -16 -3 -41 -8 -55 -11 -14 -2 -36 -7 -50 -10 -14 -3 -34 -7
-45 -9 -11 -3 -51 -11 -90 -19 -38 -9 -87 -18 -109 -21 -21 -4 -41 -8 -45 -10
-3 -2 -22 -7 -41 -10 -19 -3 -46 -8 -60 -11 -100 -22 -134 -29 -195 -40 -11
-2 -63 -13 -115 -25 -52 -11 -106 -23 -120 -25 -14 -2 -36 -7 -50 -10 -14 -4
-37 -8 -51 -9 -14 -2 -31 -6 -37 -10 -7 -4 -16 -4 -22 -1 -5 3 -10 2 -10 -2 0
-5 -8 -9 -17 -10 -39 -3 -89 -11 -105 -18 -9 -4 -22 -4 -28 0 -5 3 -10 2 -10
-3 0 -5 -6 -9 -12 -9 -11 -1 -128 -24 -243 -48 -11 -3 -76 -16 -145 -31 -69
-14 -134 -28 -145 -30 -11 -2 -36 -7 -55 -10 -19 -3 -43 -7 -52 -10 -10 -3
-30 -8 -45 -11 -16 -3 -32 -6 -38 -7 -13 -4 -76 -16 -95 -20 -50 -9 -137 -28
-150 -33 -8 -3 -18 -5 -23 -5 -4 1 -28 -3 -55 -9 -26 -6 -58 -13 -72 -15 -14
-3 -65 -13 -115 -24 -112 -24 -157 -32 -172 -33 -7 0 -13 -4 -13 -9 0 -5 -4
-7 -8 -4 -4 2 -36 -1 -70 -9 -34 -7 -62 -10 -62 -8 0 3 -6 1 -13 -4 -6 -6 -20
-9 -29 -8 -10 2 -20 0 -23 -5 -3 -4 -14 -6 -25 -3 -12 3 -20 0 -20 -7 0 -7 -7
-10 -15 -6 -8 3 -27 1 -42 -4 -15 -5 -41 -11 -58 -14 -16 -3 -41 -7 -55 -10
-14 -3 -47 -10 -75 -16 -27 -6 -61 -13 -75 -16 -14 -3 -70 -14 -125 -25 -55
-12 -107 -22 -115 -24 -8 -2 -43 -8 -77 -15 l-63 -13 0 -2791 0 -2792 63 -14
c34 -7 69 -14 77 -15 8 -1 26 -5 40 -8 14 -4 37 -9 53 -12 26 -5 42 -8 105
-21 15 -3 41 -7 57 -10 17 -3 47 -10 68 -15 21 -6 50 -12 65 -14 15 -2 81 -16
147 -30 163 -34 153 -32 215 -44 30 -6 65 -13 77 -16 13 -3 33 -7 45 -10 13
-3 39 -8 58 -12 19 -4 37 -8 40 -8 26 -7 107 -19 112 -17 5 1 8 -2 8 -8 0 -6
3 -9 8 -8 4 1 30 -1 57 -5 28 -4 53 -7 57 -8 4 0 22 -5 40 -10 18 -6 40 -12
48 -13 55 -12 97 -20 113 -21 9 -2 18 -3 20 -4 1 -2 13 -4 27 -7 14 -2 36 -7
50 -11 14 -3 30 -7 35 -8 38 -5 123 -21 130 -25 7 -3 13 -5 70 -15 28 -4 55
-9 60 -11 35 -8 74 -16 100 -20 16 -2 37 -7 47 -10 19 -6 51 -13 88 -20 14 -2
36 -6 50 -9 14 -3 34 -7 45 -9 11 -2 20 -4 20 -5 0 -4 38 -10 70 -13 17 -1 35
-5 40 -9 6 -4 32 -10 58 -13 27 -3 53 -9 59 -12 5 -3 22 -8 36 -10 15 -1 38
-5 52 -8 14 -3 39 -8 55 -11 23 -4 90 -18 145 -30 9 -2 85 -17 105 -21 20 -4
32 -6 115 -24 73 -16 94 -21 117 -25 13 -2 60 -11 105 -21 46 -9 90 -18 98
-19 8 -2 15 -4 15 -5 0 -1 14 -4 30 -6 17 -3 62 -11 100 -19 109 -23 307 -64
335 -69 14 -2 45 -9 70 -15 25 -5 59 -12 75 -15 17 -3 41 -8 55 -11 14 -4 39
-8 55 -11 17 -3 45 -10 63 -16 18 -5 36 -7 39 -4 3 3 14 1 24 -4 9 -6 33 -12
51 -15 41 -5 74 -12 100 -21 12 -3 35 -7 52 -8 18 -2 36 -5 42 -8 5 -3 26 -9
46 -12 21 -3 59 -11 85 -17 27 -6 59 -12 73 -14 14 -2 38 -8 53 -14 20 -8 26
-8 21 0 -4 8 0 7 15 -1 12 -6 34 -13 49 -15 27 -3 88 -15 107 -19 6 -2 21 -6
35 -9 14 -4 39 -9 55 -12 17 -3 46 -8 65 -11 19 -4 41 -7 48 -7 6 0 12 -3 12
-7 0 -3 10 -7 23 -7 12 -1 29 -3 37 -6 8 -2 38 -8 65 -12 57 -10 64 -12 68
-15 3 -3 28 -8 72 -15 22 -3 48 -8 57 -11 9 -3 27 -7 40 -9 13 -3 37 -8 53
-12 17 -4 37 -7 45 -8 8 -1 26 -5 40 -8 14 -4 37 -9 53 -12 15 -3 39 -7 55
-10 15 -3 38 -8 52 -12 14 -3 32 -7 40 -8 27 -4 78 -15 147 -30 37 -9 79 -17
93 -20 29 -5 79 -14 100 -18 8 -2 24 -6 35 -10 11 -4 34 -9 50 -11 74 -11 96
-16 132 -25 21 -5 54 -13 73 -16 41 -7 69 -13 90 -18 33 -8 115 -21 123 -19 4
1 7 -2 7 -6 0 -4 19 -9 42 -11 23 -1 45 -5 48 -9 3 -4 14 -8 25 -8 30 -2 85
-12 130 -24 22 -5 60 -13 85 -16 25 -3 50 -10 57 -16 7 -6 13 -8 13 -6 0 3 21
1 48 -4 26 -5 58 -11 72 -14 14 -2 43 -8 65 -13 22 -6 54 -12 70 -16 17 -3 40
-7 53 -10 43 -10 77 -17 97 -20 11 -2 34 -6 50 -10 17 -3 40 -8 53 -10 22 -5
29 -6 117 -26 28 -5 59 -12 70 -13 53 -8 142 -29 159 -38 14 -7 16 -6 11 4 -6
10 -5 11 6 1 15 -15 49 -17 49 -4 0 5 11 12 24 15 14 3 31 12 38 19 7 7 24 18
38 24 40 20 134 74 145 84 5 5 17 9 27 9 10 0 18 4 18 8 0 4 24 20 53 36 28
15 75 39 102 54 l50 27 3 3477 c2 3300 3 3477 20 3482 9 3 71 17 137 31 66 13
169 36 230 49 60 13 113 22 117 20 5 -3 8 0 8 5 0 6 3 10 8 9 4 -1 37 4 74 11
37 7 71 13 75 13 5 0 18 4 30 9 l23 8 2 -3344 3 -3344 45 28 c50 31 116 68
205 116 33 18 114 63 180 100 66 37 138 77 160 88 22 12 42 23 45 26 3 4 23
15 45 26 22 11 42 22 45 26 6 6 37 19 46 18 4 0 10 4 13 9 3 5 40 28 81 50
l75 41 3 2519 2 2520 63 12 c34 6 68 12 75 12 6 1 12 5 12 10 0 5 4 7 9 4 5
-4 38 0 73 8 34 8 75 17 91 20 64 13 84 18 127 27 25 6 54 13 65 15 34 7 58
12 105 23 25 5 57 12 73 15 l27 5 0 -2385 c0 -1311 2 -2384 4 -2384 2 0 43 24
92 53 155 93 201 117 207 110 4 -3 7 -1 7 5 0 7 17 20 38 30 20 9 39 19 42 22
3 3 16 11 30 18 39 21 81 45 125 72 59 37 97 57 128 70 15 7 27 15 27 20 0 4
8 10 18 13 9 3 49 24 87 46 l70 39 3 2254 2 2253 -52 29 c-29 17 -55 30 -58
30 -3 0 -12 6 -20 13 -8 7 -19 13 -25 14 -5 0 -17 6 -25 14 -14 12 -187 113
-220 128 -8 4 -28 16 -45 27 -16 11 -44 27 -62 35 -17 8 -34 19 -38 24 -3 5
-18 16 -33 23 -95 48 -202 111 -202 119 0 6 -4 8 -9 4 -5 -3 -17 2 -25 11 -9
8 -16 13 -16 9 0 -3 -10 1 -23 10 -13 8 -27 12 -31 8 -4 -5 -12 -9 -17 -9 -5
-1 -11 -3 -14 -4 -3 -1 -14 -4 -25 -5 -11 -1 -21 -3 -22 -5 -4 -2 -31 -8 -122
-25 -15 -3 -56 -12 -90 -20 -33 -8 -72 -16 -86 -18 -14 -3 -43 -10 -65 -15
-22 -6 -53 -13 -70 -16 -16 -3 -47 -9 -67 -15 -21 -5 -38 -7 -38 -4 0 3 -6 0
-13 -6 -8 -6 -16 -9 -19 -6 -2 3 -19 1 -36 -4 l-32 -10 -2 312 c-2 237 -6 312
-15 312 -7 0 -21 8 -32 17 -11 9 -22 14 -25 11 -3 -4 -6 -1 -6 6 0 7 -4 10 -9
6 -5 -3 -15 1 -23 8 -14 14 -97 63 -165 98 -24 12 -43 26 -43 32 0 6 -3 8 -6
4 -3 -3 -23 4 -43 17 -20 13 -57 34 -82 48 -80 45 -94 53 -99 58 -3 3 -16 11
-29 18 -13 8 -40 23 -60 35 -20 11 -48 27 -63 34 -15 8 -30 19 -33 24 -4 5
-11 7 -16 4 -5 -4 -9 -3 -9 2 0 4 -14 14 -30 21 -17 8 -36 19 -43 25 -22 20
-117 68 -117 59 0 -5 -30 -15 -67 -22 -38 -8 -72 -15 -78 -16 -5 -2 -23 -6
-40 -9 -16 -3 -37 -8 -45 -10 -8 -2 -30 -7 -49 -10 -19 -3 -38 -8 -43 -11 -5
-3 -23 -7 -41 -10 -28 -3 -65 -11 -197 -40 -14 -3 -32 -7 -40 -9 -8 -2 -15 -4
-15 -5 0 -1 -11 -3 -25 -5 -14 -1 -37 -6 -52 -10 l-28 -7 0 301 c0 261 -2 301
-15 301 -8 0 -15 5 -15 12 0 6 -3 8 -6 5 -4 -4 -19 2 -33 12 -29 20 -97 58
-241 134 -52 27 -97 53 -100 56 -9 11 -95 53 -115 56 -11 1 -36 -1 -55 -6z"/>
</g>
</svg>
