<svg version="1.1" id="icon-linkedin" xmlns="http://www.w3.org/2000/svg" xmlns:xlink="http://www.w3.org/1999/xlink" x="0px" y="0px" width="23px" height="23.006px" viewBox="0 0 23 23.006" enable-background="new 0 0 23 23.006" xml:space="preserve"><path fill-rule="evenodd" clip-rule="evenodd" d="M18.495,23v-8.126c0-1.791-0.44-2.946-2.539-2.946c-1.849,0-2.623,0.337-2.623,2.817v8.186l-4.629,0.057V7.482l4.438-0.058v1.972l0.001,0.559c1.315-1.314,2.669-2.307,4.833-2.307C20.53,7.649,23,8.74,23,12.294v10.637L18.495,23z M2.542,5.186C1.138,5.186,0,4.025,0,2.592C0,1.16,1.138,0,2.542,0c1.404,0,2.543,1.16,2.543,2.592C5.085,4.025,3.945,5.186,2.542,5.186z M4.815,22.928l-4.644,0.061V7.482l4.644-0.059V22.928z"/></svg>